<svg width="103" height="52" viewBox="0 0 103 52" fill="none" xmlns="http://www.w3.org/2000/svg">
<path d="M102.062 12.6373C102.058 12.6322 102.055 12.6267 102.05 12.6213L90.8623 1.1176C90.7366 0.988532 90.5946 0.877324 90.4434 0.7779C89.9619 0.306189 89.2497 0 88.4445 0H14.5553C13.7494 0 13.0385 0.30582 12.5568 0.7779C12.4056 0.877324 12.2634 0.987427 12.1366 1.1176L0.950558 12.6213C0.945431 12.6267 0.942978 12.6322 0.937851 12.6373C0.368943 13.0352 0 13.6216 0 14.285V49.8327C0 51.0295 1.17482 52 2.62384 52H100.376C101.825 52 103 51.0295 103 49.8327V14.285C103 13.6216 102.631 13.0352 102.062 12.6373ZM91.069 8.25053L94.8304 12.1179H91.069V8.25053ZM85.8211 4.33433V12.1178H66.1735C65.613 12.1178 65.0689 12.266 64.6177 12.5399L51.5013 20.5121L38.3823 12.5388C37.9314 12.266 37.3868 12.1178 36.8268 12.1178H17.1789V4.33433H85.8211ZM11.9317 12.1179H8.17025L11.9317 8.25053V12.1179V12.1179ZM97.7528 47.6657H5.24769V16.4521H35.966L49.946 24.9488C50.8711 25.5096 52.1318 25.5107 53.0567 24.9479L67.0337 16.4519H97.7528V47.6657V47.6657Z" fill="url(#paint0_linear_25:3)"/>
<defs>
<linearGradient id="paint0_linear_25:3" x1="51.5" y1="0" x2="51.5" y2="52" gradientUnits="userSpaceOnUse">
<stop stop-color="#55DDFF"/>
<stop offset="1" stop-color="#C058F3"/>
</linearGradient>
</defs>
</svg>
